<?xml version="1.0" encoding="UTF-8"?>
<!DOCTYPE svg PUBLIC "-//W3C//DTD SVG 1.1//EN" "http://www.w3.org/Graphics/SVG/1.1/DTD/svg11.dtd">
<svg xmlns="http://www.w3.org/2000/svg" version="1.1" width="100px" height="100px" style="shape-rendering:geometricPrecision; text-rendering:geometricPrecision; image-rendering:optimizeQuality; fill-rule:evenodd; clip-rule:evenodd" xmlns:xlink="http://www.w3.org/1999/xlink">
<g><path style="opacity:0.992" fill="#8fc9f8" d="M 39.5,-0.5 C 46.1667,-0.5 52.8333,-0.5 59.5,-0.5C 80.5,5.16667 93.8333,18.5 99.5,39.5C 99.5,46.1667 99.5,52.8333 99.5,59.5C 96.9047,70.6892 91.2381,80.0226 82.5,87.5C 82.067,84.8045 80.7337,82.6379 78.5,81C 64.945,70.4899 49.945,67.8233 33.5,73C 26.4672,76.2096 20.4672,80.7096 15.5,86.5C 7.33742,79.1746 2.00408,70.1746 -0.5,59.5C -0.5,52.8333 -0.5,46.1667 -0.5,39.5C 5.16667,18.5 18.5,5.16667 39.5,-0.5 Z"/></g>
<g><path style="opacity:1" fill="#64b5f6" d="M 42.5,22.5 C 57.9873,20.2285 66.9873,26.7285 69.5,42C 67.012,56.5922 58.3453,62.9256 43.5,61C 30.195,54.221 26.695,44.0544 33,30.5C 35.772,27.2166 38.9386,24.5499 42.5,22.5 Z"/></g>
<g><path style="opacity:1" fill="#65b5f6" d="M 82.5,87.5 C 75.7995,93.3503 68.1328,97.3503 59.5,99.5C 52.8333,99.5 46.1667,99.5 39.5,99.5C 30.3599,97.2634 22.3599,92.9301 15.5,86.5C 20.4672,80.7096 26.4672,76.2096 33.5,73C 49.945,67.8233 64.945,70.4899 78.5,81C 80.7337,82.6379 82.067,84.8045 82.5,87.5 Z"/></g>
</svg>
