<svg version="1.1" id="Layer_1" xmlns="http://www.w3.org/2000/svg" xmlns:xlink="http://www.w3.org/1999/xlink" x="0px" y="0px"
	 width="100%" viewBox="0 0 1024 1024" enable-background="new 0 0 1024 1024" xml:space="preserve">
<path fill="#000000" opacity="1.000000" stroke="none" 
	d="
M169.440826,565.537598 
	C160.974335,554.614014 161.746918,544.615173 171.869720,535.884949 
	C174.241623,533.839355 173.940430,532.293640 172.976425,529.950134 
	C162.337784,504.088043 151.760361,478.200745 141.172211,452.317902 
	C140.354004,450.317810 139.444702,448.341309 138.810242,446.282227 
	C136.718781,439.494537 133.572754,435.210358 125.359283,433.667572 
	C112.873520,431.322296 106.563438,416.193268 111.483017,404.143341 
	C116.294060,392.359192 129.986206,387.322906 141.509048,393.099060 
	C153.362152,399.040680 157.729294,412.917603 150.903030,423.960083 
	C149.046982,426.962555 148.664291,429.317780 149.987045,432.649780 
	C161.470688,461.577393 172.762360,490.581268 184.116745,519.560242 
	C184.589142,520.765869 184.791794,522.148804 186.476273,523.072205 
	C191.527588,515.115845 196.599518,507.171814 201.625122,499.198578 
	C206.775620,491.027344 211.809570,482.781586 217.046539,474.666504 
	C218.749588,472.027435 218.979416,469.926086 217.402191,466.955353 
	C212.581314,457.875031 214.972336,447.136566 222.749161,440.842712 
	C230.283951,434.744751 241.871414,434.841797 249.591385,441.067566 
	C257.328125,447.306915 259.618835,458.234833 254.916214,467.242462 
	C253.782700,469.413666 252.861191,471.181061 254.442169,473.643188 
	C264.701569,489.620300 274.840149,505.674988 285.014008,521.706970 
	C285.283325,522.131348 285.503906,522.586609 286.044220,523.565613 
	C290.505432,517.537537 292.098541,511.036682 294.498138,505.001434 
	C303.723663,481.798157 312.593689,458.453827 321.727936,435.213806 
	C323.148590,431.599304 323.526520,428.901154 320.942871,425.239288 
	C313.189087,414.249695 317.000183,399.396423 328.618317,392.971252 
	C339.384460,387.017242 353.367096,391.487854 358.936523,402.664764 
	C364.802368,414.436554 359.877930,428.123322 347.947540,433.204987 
	C347.640991,433.335571 347.328644,433.565765 347.020569,433.563110 
	C338.538055,433.489929 336.619965,439.842041 334.073730,446.132690 
	C322.579071,474.531311 310.818909,502.822418 299.161316,531.155151 
	C298.722351,532.221985 298.355042,533.318237 297.817902,534.769348 
	C303.971405,539.107849 307.722443,544.709167 307.411987,552.683167 
	C307.050690,561.962891 299.950317,570.369507 291.108124,571.320618 
	C280.974762,572.410583 272.246216,566.598694 269.741150,557.202148 
	C267.910217,550.334290 269.509003,544.253845 274.237305,539.187622 
	C276.307831,536.969116 276.126068,535.465271 274.639709,533.176636 
	C263.571472,516.134888 252.618271,499.018555 241.592819,481.948975 
	C238.303070,476.855713 233.911133,476.791656 230.623306,481.886810 
	C219.694839,498.822449 208.907608,515.849426 197.919220,532.745850 
	C196.304489,535.228760 196.846268,536.687744 198.470627,538.828491 
	C205.411987,547.976746 204.912796,557.636353 197.369400,565.517517 
	C189.701385,573.528870 178.633896,573.643066 169.440826,565.537598 
M130.868729,414.934784 
	C140.228012,417.234070 146.787369,411.628204 144.449448,403.277863 
	C143.172302,398.716217 139.894913,396.500031 135.326904,396.211792 
	C131.226364,395.953064 125.508110,399.597168 124.497322,402.894073 
	C123.528984,406.052490 126.410294,412.095123 130.868729,414.934784 
M295.727417,553.038330 
	C296.238861,548.887024 294.786835,545.723511 290.663605,544.512878 
	C287.453766,543.570435 284.375946,544.155029 282.259125,547.177917 
	C279.692627,550.842834 280.710693,555.456604 284.609100,557.890076 
	C288.517761,560.329895 292.572723,558.813538 295.727417,553.038330 
M177.391342,555.954468 
	C178.406555,556.785217 179.296921,557.950989 180.460175,558.384583 
	C184.093185,559.738708 187.429062,559.076538 189.624405,555.689026 
	C191.753738,552.403381 191.569489,549.013428 188.655716,546.226074 
	C185.753586,543.449829 182.352020,543.366455 179.143188,545.604187 
	C175.596619,548.077515 175.353241,551.541138 177.391342,555.954468 
z"/>
<path fill="#000000" opacity="1.000000" stroke="none" 
	d="
M395.186584,512.887268 
	C389.516785,493.558289 384.030396,474.614197 378.534698,455.637970 
	C382.263306,454.104309 385.440552,454.825165 388.552307,454.723694 
	C391.181824,454.637939 391.218811,456.738983 391.682922,458.446869 
	C394.907104,470.310852 398.113556,482.179688 401.335754,494.044220 
	C401.594177,494.995758 401.927979,495.926849 402.340271,497.224854 
	C404.975281,493.596619 405.555878,489.550720 406.615112,485.717957 
	C409.094879,476.745148 411.574463,467.768646 413.802216,458.731537 
	C414.673706,455.196472 416.709778,454.329468 419.945312,454.622772 
	C423.219574,454.919617 426.928955,453.509735 428.238617,458.571045 
	C431.026520,469.345490 434.226959,480.012848 437.212799,490.736755 
	C437.745087,492.648529 438.160919,494.579620 439.600677,496.546600 
	C443.551910,489.570587 444.220764,481.844147 446.414185,474.619141 
	C447.765137,470.169189 449.069183,465.661621 449.826172,461.085938 
	C450.719147,455.688477 453.608734,453.782654 458.770386,454.620209 
	C460.053894,454.828522 461.358246,454.908142 462.479492,455.028320 
	C463.739471,457.183228 462.581604,458.919708 462.123932,460.568115 
	C457.498901,477.226379 452.476746,493.780182 448.184296,510.521820 
	C446.684357,516.371887 442.889313,515.238953 439.043121,515.409851 
	C435.342926,515.574280 432.456512,515.454102 431.346100,510.642792 
	C429.141998,501.092743 426.238983,491.702454 423.557770,482.265198 
	C422.933411,480.067535 422.456726,477.764008 420.587738,475.600494 
	C417.310394,487.173309 414.167480,498.474640 410.897217,509.738983 
	C409.088013,515.970825 400.362457,517.900452 395.186584,512.887268 
z"/>
<path fill="#000000" opacity="1.000000" stroke="none" 
	d="
M538.744385,468.657349 
	C550.796021,471.344360 556.704346,478.443268 557.287476,490.419128 
	C557.901672,503.032867 552.214844,512.462036 541.782532,516.033691 
	C537.282837,517.574219 532.893921,516.841980 528.723022,514.894836 
	C526.237610,513.734558 524.391174,513.156616 521.448303,514.739319 
	C515.633972,517.866211 511.633392,515.086182 511.631195,508.716888 
	C511.625458,492.081055 511.727966,475.444244 511.560669,458.810089 
	C511.516296,454.397491 511.872040,451.766479 517.545410,451.774353 
	C523.460632,451.782562 523.480591,454.891968 523.263306,459.044830 
	C523.115662,461.865021 523.240784,464.699402 523.240601,467.527435 
	C523.240417,471.142761 524.605164,472.569641 528.166626,470.686951 
	C531.335083,469.011963 534.752441,468.462494 538.744385,468.657349 
M523.045166,490.281555 
	C522.154663,497.042236 524.547546,502.573700 529.298889,504.737823 
	C535.736694,507.670013 542.823364,504.736237 545.270081,498.125732 
	C548.216736,490.164795 544.717224,481.728729 537.633972,479.717804 
	C530.838501,477.788635 524.767090,481.902649 523.045166,490.281555 
z"/>
<path fill="#000000" opacity="1.000000" stroke="none" 
	d="
M578.620117,488.660339 
	C565.482605,485.015350 560.161926,474.430420 565.382141,462.902496 
	C569.270630,454.315491 577.310913,453.156525 585.119202,452.967346 
	C592.710144,452.783386 600.029480,454.892700 604.961365,461.520966 
	C606.332825,463.364166 608.888733,465.282349 606.662109,467.975037 
	C604.443298,470.658325 599.338318,470.965942 597.020874,468.696533 
	C593.262146,465.015717 588.944336,462.833618 583.578735,463.408752 
	C579.427612,463.853638 575.227478,465.059875 574.607178,469.779388 
	C573.972290,474.609802 578.064880,476.099426 581.867493,477.191315 
	C586.654175,478.565796 591.580017,479.520935 596.264893,481.170654 
	C605.185974,484.312073 608.732483,489.808167 608.315186,498.968292 
	C607.924072,507.553101 603.619690,512.883484 594.991272,515.468140 
	C582.191711,519.302246 568.894592,514.785217 563.135071,504.568207 
	C562.145996,502.813690 560.082642,500.591644 563.077271,499.081268 
	C565.619568,497.799042 568.445496,495.019440 571.392822,498.841827 
	C575.718079,504.451141 581.438721,506.836029 588.506653,505.757019 
	C592.736816,505.111267 596.397217,503.620148 596.773193,498.657257 
	C597.145996,493.735352 593.732910,492.108490 589.684021,491.214264 
	C586.119934,490.427094 582.564697,489.600098 578.620117,488.660339 
z"/>
<path fill="#000000" opacity="1.000000" stroke="none" 
	d="
M742.724792,471.140564 
	C748.989624,468.409576 752.174988,469.199463 754.270203,473.806793 
	C758.983704,469.962616 764.309204,467.882446 770.395386,468.844940 
	C779.048157,470.213257 785.889893,476.878876 787.069397,485.779968 
	C787.760132,490.991974 787.952148,496.349731 786.341675,501.602448 
	C782.360718,514.586731 770.330811,520.048035 757.980103,514.350525 
	C756.954712,513.877502 756.046143,512.963745 754.252686,513.477844 
	C752.127625,519.275940 754.280334,525.729736 752.886108,532.024475 
	C752.006226,532.174194 751.219360,532.406311 750.426758,532.427673 
	C742.649170,532.636841 742.641113,532.626892 742.637085,524.982788 
	C742.627686,507.170837 742.626587,489.358887 742.724792,471.140564 
M769.078674,480.202026 
	C764.609741,478.507568 760.522766,479.032562 757.251343,482.671356 
	C753.386719,486.970123 752.361816,491.975098 754.256287,497.489410 
	C755.754395,501.850189 758.326355,505.098358 763.232849,505.748962 
	C767.937134,506.372681 771.847778,504.878815 774.442566,500.862488 
	C779.003479,493.802795 776.950195,485.144714 769.078674,480.202026 
z"/>
<path fill="#000000" opacity="1.000000" stroke="none" 
	d="
M670.091614,468.671509 
	C681.588989,469.205505 687.730591,475.171326 688.097107,486.218933 
	C688.372803,494.527954 688.066406,502.855377 688.286560,511.167542 
	C688.402100,515.528625 685.734619,515.507690 682.736938,515.384277 
	C679.879028,515.266663 676.473877,516.248108 676.618042,511.291595 
	C676.811523,504.643402 676.682861,497.984863 676.643066,491.331055 
	C676.601990,484.462372 673.018005,479.670929 667.818237,479.436646 
	C662.521179,479.197998 657.834229,484.010284 657.472229,490.745422 
	C657.133423,497.048828 657.379456,503.383728 657.369324,509.704742 
	C657.366699,511.334290 657.368896,512.963867 657.368896,514.284241 
	C656.615356,514.779541 656.360718,515.083191 656.076294,515.114197 
	C645.827515,516.229370 645.848755,516.225830 645.859436,505.882935 
	C645.876099,489.747070 645.962219,473.610077 645.786621,457.476074 
	C645.742432,453.417267 646.965820,451.781647 651.180542,451.892090 
	C655.229980,451.998199 657.761902,452.511383 657.476746,457.619385 
	C657.204773,462.492737 656.578735,467.531158 658.248596,472.550964 
	C662.162048,471.063110 665.514648,468.658630 670.091614,468.671509 
z"/>
<path fill="#000000" opacity="1.000000" stroke="none" 
	d="
M496.274353,500.252441 
	C499.537048,500.936890 503.105103,501.961121 503.677399,504.839172 
	C504.270905,507.823975 501.066223,509.978058 498.787842,511.873596 
	C491.601654,517.852295 481.299164,518.355103 472.669067,513.284729 
	C465.125000,508.852356 460.455994,498.362244 461.912598,489.117737 
	C464.328766,473.783630 476.956085,465.453705 491.198517,469.798584 
	C500.892792,472.755981 507.842682,484.594025 505.628967,494.342926 
	C504.871246,497.679871 502.106384,497.121735 499.998688,496.893707 
	C493.688538,496.210999 487.376373,496.479675 481.065582,496.417358 
	C478.781342,496.394775 476.045746,496.045563 475.284637,499.025421 
	C474.530914,501.976440 476.626099,503.571930 478.895416,504.881805 
	C484.729218,508.249023 488.840424,507.161133 496.274353,500.252441 
M480.534485,479.715210 
	C478.612854,480.703552 476.588928,481.550049 475.272949,483.398438 
	C474.064026,485.096558 474.059631,486.945679 476.306732,487.200012 
	C481.969971,487.841034 487.738831,488.558624 493.289551,486.128265 
	C491.121399,480.181488 489.104340,479.134064 480.534485,479.715210 
z"/>
<path fill="#000000" opacity="1.000000" stroke="none" 
	d="
M822.367371,514.591064 
	C820.310608,511.894623 818.626404,513.513855 816.942932,514.488770 
	C811.470764,517.657776 805.794983,517.469116 800.104553,515.320679 
	C793.988647,513.011597 790.487366,506.059723 791.641235,498.910217 
	C792.586182,493.055786 798.370667,488.053314 804.437622,487.423584 
	C808.450806,487.007050 812.387817,487.558136 816.359314,487.663727 
	C817.967957,487.706543 819.909607,488.334686 820.647461,486.212463 
	C821.370483,484.132812 820.581543,482.279449 819.055237,480.771698 
	C815.738403,477.495453 809.905701,477.612671 806.471130,481.142242 
	C805.227905,482.419769 804.307129,484.010986 803.057068,485.706024 
	C801.159424,485.224518 799.225891,484.804779 797.339600,484.230164 
	C796.102600,483.853333 794.933838,483.252502 793.411072,482.617004 
	C795.657898,475.191864 800.358521,471.033997 807.635193,469.311523 
	C821.705261,465.980988 832.214844,474.123322 832.336609,488.479126 
	C832.402832,496.287994 831.730835,504.120850 832.812805,511.902740 
	C833.184998,514.579834 832.125977,515.675842 829.538635,515.452209 
	C827.239014,515.253479 824.868408,515.831299 822.367371,514.591064 
M811.584839,495.410156 
	C809.887756,495.285797 808.347107,495.763367 806.814087,496.470459 
	C804.575745,497.502960 802.564331,498.988220 802.679749,501.520721 
	C802.800842,504.177521 804.786804,505.929810 807.300903,506.794891 
	C811.371582,508.195587 814.713806,506.407043 817.820740,504.083252 
	C819.596741,502.754883 821.000610,500.938629 820.605408,498.601929 
	C820.150146,495.909912 817.584900,496.585938 815.782349,496.128387 
	C814.666382,495.845093 813.525574,495.659637 811.584839,495.410156 
z"/>
<path fill="#000000" opacity="1.000000" stroke="none" 
	d="
M694.245117,498.669556 
	C696.768921,490.507843 702.716309,486.613617 711.534912,487.092316 
	C714.023071,487.227386 716.502625,487.515198 718.988037,487.708862 
	C720.670959,487.839996 722.425903,488.006409 723.231873,486.020508 
	C724.029785,484.054382 723.192688,482.449677 721.873535,481.042603 
	C718.584229,477.534271 712.105347,477.458313 708.795227,480.866730 
	C703.800537,486.009644 702.859314,486.136078 696.288452,482.546570 
	C697.761963,473.369690 707.834717,467.139130 718.298279,468.831604 
	C729.315552,470.613708 734.958130,478.074127 734.452087,488.026062 
	C734.000610,496.904358 733.947327,505.836578 735.405334,514.998169 
	C731.119385,515.221252 727.403748,516.503662 723.921570,513.872742 
	C722.287354,512.638000 720.760620,513.833374 719.257629,514.461182 
	C716.186340,515.743958 713.140259,516.987732 709.691284,516.971802 
	C699.188171,516.923340 693.034424,509.895569 694.245117,498.669556 
M719.122498,496.269531 
	C715.711365,495.354919 712.312988,494.654205 708.966248,496.533844 
	C707.007446,497.633942 705.347778,498.871277 705.417175,501.468994 
	C705.490417,504.212341 707.111267,505.649109 709.415283,506.616486 
	C713.694885,508.413330 721.241150,505.022400 722.708984,500.659546 
	C723.608521,497.985931 722.872681,496.442169 719.122498,496.269531 
z"/>
<path fill="#000000" opacity="1.000000" stroke="none" 
	d="
M928.096558,494.033844 
	C928.093628,501.167603 928.093628,507.807251 928.093628,514.406860 
	C921.756592,516.455688 919.037964,515.842285 916.536194,511.669739 
	C911.972534,515.500122 906.725098,516.979797 900.786560,516.393982 
	C892.679382,515.594116 887.837280,510.502258 887.648132,502.260223 
	C887.452942,493.751648 891.754517,488.805206 900.049622,487.572388 
	C905.680603,486.735535 911.208252,487.949829 917.000671,488.258606 
	C917.701172,484.063080 916.343079,481.139557 912.819946,479.425201 
	C908.798828,477.468506 904.971130,478.118164 901.758301,481.197235 
	C897.264526,485.503967 895.557373,485.754669 889.647949,482.459808 
	C891.324097,473.091064 901.220886,467.020874 911.799927,468.872955 
	C922.929199,470.821320 928.234375,477.194733 928.166260,488.542938 
	C928.156250,490.208588 928.122314,491.874146 928.096558,494.033844 
M898.730408,500.106232 
	C898.903137,504.934570 901.463501,507.438690 906.016357,507.232025 
	C911.327881,506.990936 916.992004,502.558777 916.924683,498.771912 
	C916.907898,497.830017 916.596375,497.227081 915.840088,496.742279 
	C911.519775,493.972809 902.735657,495.384888 898.730408,500.106232 
z"/>
<path fill="#000000" opacity="1.000000" stroke="none" 
	d="
M851.363037,490.562347 
	C851.340820,497.664185 851.125488,504.329346 851.387634,510.975677 
	C851.572937,515.674988 848.688293,515.423340 845.561829,515.404175 
	C842.485718,515.385315 839.565796,515.779114 839.637939,511.044983 
	C839.828064,498.566467 839.650635,486.082794 839.716431,473.601715 
	C839.736389,469.811218 845.027893,467.766479 849.709412,470.313751 
	C852.180664,471.658356 853.850220,471.388245 856.130859,470.480713 
	C870.332336,464.829498 881.321655,472.304199 881.343933,487.545074 
	C881.355347,495.367157 881.149292,503.195404 881.402710,511.009125 
	C881.556152,515.739075 878.638794,515.370728 875.545166,515.413025 
	C872.320312,515.457092 869.547058,515.452087 869.705933,510.886810 
	C869.931519,504.403809 869.795288,497.907318 869.769653,491.416748 
	C869.740173,483.944946 867.195496,480.041870 862.024475,479.429169 
	C856.533325,478.778564 852.845947,482.479004 851.363037,490.562347 
z"/>
<path fill="#000000" opacity="1.000000" stroke="none" 
	d="
M634.296936,469.650635 
	C639.817200,470.231201 640.010071,470.640228 638.930420,478.585571 
	C638.675720,478.756165 638.421631,479.067444 638.140686,479.093994 
	C629.336182,479.925751 629.335022,479.921539 629.339355,488.810425 
	C629.340881,491.970978 629.401428,495.132599 629.338440,498.291840 
	C629.245178,502.970459 631.478943,505.715515 636.145447,505.593506 
	C641.043274,505.465454 640.167236,508.681946 640.347900,511.608551 
	C640.559448,515.036133 639.086853,516.274536 635.698242,516.419434 
	C624.153015,516.912842 618.636963,511.805847 618.644836,500.304443 
	C618.648438,495.147766 618.561096,489.989197 618.675842,484.835083 
	C618.745178,481.722534 617.858948,479.442017 614.390747,479.441833 
	C610.188904,479.441589 610.793579,476.572693 610.678650,473.926208 
	C610.556213,471.105469 611.431580,469.445648 614.597412,469.650940 
	C618.995728,469.936157 618.622681,466.791931 618.657471,463.904175 
	C618.728882,457.975647 621.247498,456.220856 627.061218,457.788696 
	C630.212341,458.638489 629.145264,461.136627 629.311707,463.094757 
	C629.576294,466.207184 628.898987,469.843109 634.296936,469.650635 
z"/>
<path fill="#000000" opacity="1.000000" stroke="none" 
	d="
M374.680176,568.976318 
	C374.683624,564.653503 374.865845,560.813904 374.638916,556.998596 
	C374.429291,553.475098 376.108582,552.079346 379.299774,552.164612 
	C382.617584,552.253357 385.985840,552.263916 389.229614,552.863098 
	C393.453003,553.643188 394.850800,556.855164 394.189209,560.753174 
	C393.782745,563.148010 393.828979,565.034607 395.111053,567.290955 
	C398.011993,572.396179 395.299377,577.993469 389.380829,578.947021 
	C385.481445,579.575195 381.423157,579.241150 377.435425,579.286499 
	C375.591156,579.307434 374.746887,578.255310 374.734985,576.461060 
	C374.719543,574.130737 374.698883,571.800354 374.680176,568.976318 
M386.078461,574.766479 
	C388.820251,574.548767 391.434021,573.531006 390.591217,570.379822 
	C389.398987,565.921936 385.298126,567.517151 382.240082,567.501099 
	C379.087067,567.484619 379.205322,570.022522 379.454224,572.160889 
	C379.906830,576.048584 383.040253,574.504395 386.078461,574.766479 
M387.574280,557.445068 
	C385.946167,556.514832 384.183655,556.343567 382.347992,556.443970 
	C379.573120,556.595825 378.942780,558.466492 379.633209,560.538452 
	C380.829712,564.129272 384.088531,562.671875 386.376251,562.405273 
	C388.847473,562.117188 390.150421,560.383972 387.574280,557.445068 
z"/>
<path fill="#000000" opacity="1.000000" stroke="none" 
	d="
M658.494751,581.210632 
	C657.920837,579.331482 656.621338,580.027832 655.546936,580.005432 
	C648.648804,579.861816 644.364502,575.159058 645.042725,568.466797 
	C645.734314,561.641907 649.931580,558.581665 657.143494,559.585938 
	C658.283325,559.744568 659.462891,559.778931 660.610107,559.690491 
	C663.069031,559.500854 664.364746,560.391296 664.335144,563.023865 
	C664.269714,568.839355 664.429443,574.660217 664.239319,580.470459 
	C664.109497,584.435791 661.587036,586.977966 657.978455,587.981262 
	C654.131287,589.050842 650.342346,588.547546 647.445435,585.346313 
	C646.489075,584.289490 645.019958,583.010193 646.569458,581.537598 
	C647.902100,580.271118 649.611938,580.244751 650.996277,581.729675 
	C653.581299,584.502563 656.052795,584.590515 658.494751,581.210632 
M659.584900,570.230530 
	C659.762756,566.831604 658.321228,564.223877 654.970032,563.696289 
	C652.361084,563.285522 650.830444,565.429626 650.323914,567.864868 
	C649.757141,570.590027 649.976746,573.415283 652.970154,574.535034 
	C656.178162,575.735229 658.280518,573.958374 659.584900,570.230530 
z"/>
<path fill="#000000" opacity="1.000000" stroke="none" 
	d="
M618.868896,579.380493 
	C610.874084,579.357971 610.876038,579.357971 610.896729,571.713440 
	C610.910645,566.570068 611.011475,561.424438 610.892273,556.284119 
	C610.823730,553.325134 612.036560,552.030945 614.972717,552.038391 
	C620.827576,552.053162 626.844360,551.842224 631.039734,556.861267 
	C634.776428,561.331604 635.240906,566.590820 632.771484,571.811646 
	C630.140869,577.373352 625.318176,579.526733 618.868896,579.380493 
M624.273010,557.911499 
	C616.852783,556.058960 616.308044,556.477417 616.289917,564.098206 
	C616.283997,566.584900 616.347168,569.072327 616.307800,571.558289 
	C616.270569,573.915039 617.458435,574.762878 619.701965,574.740173 
	C623.530518,574.701416 626.728760,573.271240 628.114136,569.702698 
	C629.804810,565.347595 629.258911,561.193237 624.273010,557.911499 
z"/>
<path fill="#000000" opacity="1.000000" stroke="none" 
	d="
M510.255920,562.232483 
	C510.313141,568.190552 510.322357,573.673828 510.336975,579.157104 
	C510.347870,583.251953 508.522522,586.323364 504.714111,587.712036 
	C500.755707,589.155334 496.824310,588.852295 493.643433,585.632141 
	C492.543732,584.518921 490.686615,583.255127 492.359924,581.510437 
	C493.619629,580.196960 495.156067,580.584839 496.779114,581.770752 
	C501.259338,585.044189 503.090759,584.423462 505.381561,578.804443 
	C501.941406,579.953552 498.735687,580.502380 495.719086,578.642151 
	C493.803711,577.460999 492.528595,575.776062 491.795258,573.659790 
	C489.983521,568.431458 491.619385,562.865356 495.691650,560.424133 
	C499.242584,558.295471 507.546906,559.058228 510.255920,562.232483 
M496.449463,572.131104 
	C499.778381,576.083740 502.962311,576.149597 504.844574,572.283508 
	C506.147644,569.607056 505.829224,567.119263 503.662567,565.040100 
	C502.438385,563.865417 500.921631,562.912720 499.209229,563.952148 
	C496.379089,565.670044 495.031525,568.103271 496.449463,572.131104 
z"/>
<path fill="#000000" opacity="1.000000" stroke="none" 
	d="
M834.792114,579.013916 
	C831.818787,579.308716 829.224609,579.114990 826.566406,579.497742 
	C820.442810,580.379578 815.459900,575.493042 815.393860,569.002808 
	C815.336853,563.398499 820.414307,558.325317 826.161072,559.107361 
	C830.135132,559.648193 830.785461,558.136536 830.719910,554.886230 
	C830.685547,553.182373 830.286499,550.821594 833.133545,550.928223 
	C835.985291,551.034973 835.307190,553.460571 835.296692,555.093140 
	C835.245483,563.007874 835.956543,570.929138 834.792114,579.013916 
M827.466064,564.238098 
	C825.052368,562.742981 823.318726,563.996582 821.940430,565.812744 
	C820.724060,567.415527 819.909363,569.220398 820.930969,571.344360 
	C821.942200,573.446655 823.388550,574.863831 825.848938,574.893005 
	C827.899231,574.917297 829.371155,573.921570 830.096924,572.055725 
	C831.237427,569.123657 830.784729,566.534790 827.466064,564.238098 
z"/>
<path fill="#000000" opacity="1.000000" stroke="none" 
	d="
M438.001465,573.239624 
	C437.276855,564.352661 439.319000,560.761719 445.191010,559.141907 
	C447.636566,558.467346 449.681244,559.926941 451.981354,559.814270 
	C453.167511,557.724731 452.444855,555.517456 452.697998,553.427429 
	C452.875092,551.965698 453.249512,550.841064 455.037354,550.887756 
	C456.495270,550.925903 457.174561,551.764771 457.182709,553.076477 
	C457.232025,561.038330 457.240479,569.000488 457.225250,576.962524 
	C457.223694,577.780334 456.963837,578.528625 456.104218,579.008911 
	C450.647675,582.057617 441.550415,579.356750 438.001465,573.239624 
M452.512787,568.757446 
	C450.348877,563.740784 447.947937,562.358337 445.035187,564.546326 
	C442.679504,566.315857 441.741180,568.710510 442.681854,571.575439 
	C443.361298,573.644653 444.839935,574.940735 447.128815,574.906006 
	C450.643860,574.852783 451.964447,572.519653 452.512787,568.757446 
z"/>
<path fill="#000000" opacity="1.000000" stroke="none" 
	d="
M838.676880,573.008301 
	C839.766724,565.283142 845.489624,566.862183 850.330688,566.842041 
	C848.957214,562.945923 848.073975,562.499207 844.943481,564.822205 
	C843.146179,566.155945 841.410950,566.657654 840.201050,564.985657 
	C838.740356,562.966980 840.826721,561.642578 842.240784,560.635620 
	C847.518188,556.877319 854.942505,560.005859 856.001038,566.364441 
	C856.136658,567.178772 856.143188,568.016907 856.177917,568.845398 
	C856.622009,579.450439 855.619324,580.482666 844.991516,579.698669 
	C841.257263,579.423157 838.767456,577.539490 838.676880,573.008301 
M843.849976,572.697083 
	C843.378479,574.753296 844.734009,575.480957 846.286011,575.386169 
	C848.226196,575.267639 850.051453,574.551208 850.247131,572.031128 
	C848.073059,570.714966 846.141418,570.858643 843.849976,572.697083 
z"/>
<path fill="#000000" opacity="1.000000" stroke="none" 
	d="
M708.103271,566.546936 
	C708.167664,567.488464 708.195679,567.987061 708.201355,568.485901 
	C708.326294,579.417908 708.326782,579.472473 697.784424,579.659973 
	C694.096924,579.725647 691.167542,578.300781 690.710510,574.195251 
	C690.242432,569.989014 692.545288,567.686584 696.489807,566.810608 
	C698.344482,566.398743 700.426270,567.237610 702.487427,565.876892 
	C700.756348,563.040100 698.883179,562.859314 696.803711,564.879761 
	C695.141968,566.494202 693.239624,566.646851 692.134216,564.868713 
	C690.867615,562.831238 692.914001,561.521606 694.394836,560.557190 
	C699.525818,557.215698 705.955322,559.873535 708.103271,566.546936 
M699.361572,571.226257 
	C697.731201,571.339050 695.845764,571.280457 695.745972,573.520020 
	C695.686340,574.859497 696.936157,575.413879 698.133301,575.476135 
	C699.891968,575.567627 701.434937,574.887207 702.033508,573.167358 
	C702.620483,571.480652 701.179993,571.413879 699.361572,571.226257 
z"/>
<path fill="#000000" opacity="1.000000" stroke="none" 
	d="
M739.625122,563.812378 
	C742.192688,563.933533 744.350830,563.981995 746.508484,564.047058 
	C748.148315,564.096558 749.591858,564.558960 749.558350,566.516418 
	C749.525024,568.459229 748.119568,568.934387 746.443054,568.878174 
	C745.779541,568.855957 745.117188,568.799744 744.454224,568.761658 
	C737.672485,568.371765 737.701782,568.373657 737.312378,575.014343 
	C737.213562,576.699585 737.839722,579.071228 735.006287,579.088196 
	C732.138550,579.105408 732.726807,576.703552 732.703979,575.034058 
	C732.617676,568.724060 732.741516,562.410828 732.633850,556.101440 
	C732.587524,553.384094 733.652405,552.076721 736.380310,552.089233 
	C739.535034,552.103760 742.690552,552.024719 745.844788,552.064453 
	C747.522278,552.085632 749.420227,552.114868 749.460144,554.468201 
	C749.507568,557.259827 747.311401,556.915955 745.528442,556.952637 
	C743.070129,557.003235 740.609924,556.965332 737.917175,556.965332 
	C737.519226,559.654419 736.107056,562.075867 739.625122,563.812378 
z"/>
<path fill="#000000" opacity="1.000000" stroke="none" 
	d="
M794.889648,569.024414 
	C794.878784,567.045715 794.910645,565.547791 794.847290,564.053955 
	C794.721130,561.078674 795.443298,559.103699 799.084106,559.895386 
	C799.998596,560.094360 801.047852,559.858643 802.001892,559.661621 
	C808.542603,558.311096 812.465210,560.685974 813.346436,567.157104 
	C813.787964,570.399109 813.312134,573.777527 813.131653,577.087769 
	C813.042175,578.728516 811.904297,579.317139 810.350220,579.194702 
	C808.809692,579.073303 808.472107,577.987366 808.508057,576.740356 
	C808.599243,573.579407 808.703613,570.431824 807.885010,567.324768 
	C807.377686,565.399231 806.427734,563.714417 804.330322,563.741028 
	C802.084534,563.769592 800.634277,565.437134 800.365601,567.565247 
	C800.013428,570.354004 800.112732,573.198425 799.988953,576.017639 
	C799.909424,577.830750 799.470459,579.366150 797.149658,579.202209 
	C795.080994,579.056152 794.910767,577.561462 794.895508,575.990173 
	C794.874512,573.829285 794.889648,571.668152 794.889648,569.024414 
z"/>
<path fill="#000000" opacity="1.000000" stroke="none" 
	d="
M561.245667,568.207031 
	C561.297363,573.794800 559.171387,577.702820 554.106201,579.259644 
	C549.888367,580.555908 546.227417,579.177002 543.695679,575.459290 
	C540.846680,571.275452 541.077271,567.024719 543.936218,562.963623 
	C545.972839,560.070618 548.842896,558.389893 552.445190,558.920105 
	C557.483337,559.661743 560.184448,562.966980 561.245667,568.207031 
M549.559326,564.170044 
	C548.752747,565.197327 547.811157,566.146851 547.166565,567.267334 
	C545.632507,569.933960 546.885376,572.121826 548.827087,573.865906 
	C550.492310,575.361572 552.599915,575.379700 554.286377,573.911011 
	C556.299255,572.158142 557.216187,569.892273 555.911072,567.241150 
	C554.746399,564.875305 553.265076,562.967468 549.559326,564.170044 
z"/>
<path fill="#000000" opacity="1.000000" stroke="none" 
	d="
M904.838623,574.766724 
	C904.816956,570.633057 904.769104,566.971191 904.803955,563.310181 
	C904.816162,562.031982 904.706665,559.803040 906.188965,560.068359 
	C910.564880,560.851318 914.952820,557.253052 919.200012,560.234375 
	C923.150024,563.007141 923.605408,567.216614 923.129456,571.406677 
	C922.825317,574.083374 925.445496,579.004639 920.478943,578.927063 
	C916.266235,578.861267 918.549744,574.179260 918.076660,571.553955 
	C917.522217,568.476929 918.911255,563.769836 914.172119,563.840027 
	C909.935181,563.902771 910.001648,568.245483 909.963257,571.635498 
	C909.950073,572.800476 910.016174,573.969482 909.941589,575.129944 
	C909.827332,576.906433 910.137634,579.131470 907.446533,579.177856 
	C904.757812,579.224304 904.959167,577.057678 904.838623,574.766724 
z"/>
<path fill="#000000" opacity="1.000000" stroke="none" 
	d="
M769.109009,565.219910 
	C769.444458,567.219788 769.954895,568.889221 769.789124,570.488647 
	C769.238281,575.803711 765.703369,579.270752 760.860046,579.571594 
	C755.931030,579.877869 751.952698,576.750122 750.838867,571.693115 
	C749.706055,566.549744 752.363159,561.347412 757.116089,559.402954 
	C761.572021,557.579956 765.495361,559.384583 769.109009,565.219910 
M755.417725,568.781738 
	C755.254578,572.024658 756.712769,574.280457 759.835571,575.041443 
	C761.833374,575.528259 763.271179,574.147827 764.245483,572.498535 
	C765.817749,569.836914 765.099426,567.367737 763.251221,565.201111 
	C760.749329,562.268005 758.536499,563.122009 755.417725,568.781738 
z"/>
<path fill="#000000" opacity="1.000000" stroke="none" 
	d="
M482.507935,565.800415 
	C478.722839,562.954956 476.004669,563.853760 475.398224,568.003418 
	C475.041168,570.446777 475.263672,572.972961 475.195618,575.461121 
	C475.143951,577.349609 475.076111,579.312378 472.414001,579.227661 
	C469.746704,579.142883 469.879303,577.102539 469.836578,575.269287 
	C469.794037,573.443909 469.813507,571.616943 469.816254,569.790710 
	C469.831970,559.413513 469.831665,559.374573 480.017181,559.007874 
	C483.538116,558.881104 486.117645,560.546814 487.364563,563.867432 
	C488.991364,568.199707 488.219666,572.725281 488.094604,577.177307 
	C488.048340,578.822876 486.791962,579.345825 485.273804,579.230408 
	C483.484344,579.094543 483.244141,577.924683 483.316803,576.424500 
	C483.484192,572.968384 484.194580,569.468384 482.507935,565.800415 
z"/>
<path fill="#000000" opacity="1.000000" stroke="none" 
	d="
M888.184814,559.794922 
	C894.504578,557.999084 899.296143,560.185730 901.064331,565.332947 
	C902.860535,570.561890 900.335144,577.172424 895.847534,578.988770 
	C891.151123,580.889648 885.804382,578.856201 883.525757,574.302612 
	C881.060486,569.375916 882.696045,563.927063 888.184814,559.794922 
M894.838623,564.865662 
	C892.712830,562.679321 890.610840,563.243347 888.929565,565.266724 
	C886.981323,567.611267 886.595398,570.337158 888.411499,572.993896 
	C889.667786,574.831726 891.551025,575.426453 893.613403,574.596130 
	C896.327087,573.503479 897.016296,571.167419 896.629456,568.524536 
	C896.471191,567.442749 895.782471,566.438660 894.838623,564.865662 
z"/>
<path fill="#000000" opacity="1.000000" stroke="none" 
	d="
M791.086975,562.362915 
	C791.134949,568.117249 791.134949,573.409058 791.134949,579.018311 
	C787.345215,579.150940 783.929077,579.577148 780.612549,579.630615 
	C776.422241,579.698120 773.970642,576.678772 773.690430,572.518433 
	C773.423279,568.552002 773.632812,564.553406 773.632812,560.442688 
	C776.626221,559.108093 778.230164,559.720215 778.277527,563.048950 
	C778.310669,565.381165 778.296265,567.713928 778.312378,570.046387 
	C778.328796,572.418396 778.955505,574.559692 781.707825,574.720581 
	C784.712158,574.896240 785.689331,572.695007 785.868469,570.151550 
	C786.031860,567.830688 785.931091,565.492432 786.004700,563.163635 
	C786.046753,561.832581 786.047729,560.327332 787.705139,559.932312 
	C789.329651,559.545105 790.709778,559.922791 791.086975,562.362915 
z"/>
<path fill="#000000" opacity="1.000000" stroke="none" 
	d="
M406.331909,574.567993 
	C410.211090,575.037476 411.460876,572.941345 411.647278,569.916138 
	C411.800293,567.432556 411.738800,564.935669 411.773346,562.444702 
	C411.798584,560.626160 412.642120,559.671570 414.539703,559.785889 
	C416.460205,559.901672 416.419464,561.294678 416.438477,562.653259 
	C416.512299,567.935913 417.046783,573.223755 416.265045,578.894775 
	C412.928894,579.117493 409.557312,579.513977 406.185089,579.519592 
	C402.786774,579.525208 400.782959,577.475159 399.656189,574.346863 
	C398.256287,570.460205 398.801086,566.468628 398.803436,562.503479 
	C398.804291,561.052246 399.236115,559.904114 401.016571,559.813110 
	C403.042236,559.709595 403.615509,560.996338 403.726532,562.613281 
	C403.874237,564.764709 403.809753,566.930725 403.960999,569.081726 
	C404.098633,571.039124 403.980499,573.144653 406.331909,574.567993 
z"/>
<path fill="#000000" opacity="1.000000" stroke="none" 
	d="
M533.309143,561.608398 
	C535.757629,559.997314 536.455444,557.330444 537.766602,555.077393 
	C539.177490,552.652893 540.951172,551.945496 543.757202,553.050842 
	C543.319031,555.823792 541.568176,557.915039 540.326538,560.186218 
	C537.752258,564.895203 535.211731,569.514404 535.874573,575.221436 
	C536.073853,576.937195 535.923340,579.151550 533.262390,579.213318 
	C530.480835,579.277954 530.477905,577.078308 530.733215,575.330872 
	C531.650696,569.051636 528.785706,564.043701 525.739746,559.012207 
	C524.652771,557.216614 523.162842,555.533386 523.160828,553.131409 
	C525.723267,551.498596 527.507263,552.325989 528.917725,554.711487 
	C530.267639,556.994690 531.667236,559.248474 533.309143,561.608398 
z"/>
<path fill="#000000" opacity="1.000000" stroke="none" 
	d="
M582.203613,570.908997 
	C582.218201,572.549255 582.171570,573.718872 582.255554,574.879028 
	C582.483276,578.024414 582.022888,580.388123 577.931458,579.073303 
	C577.473328,578.926147 576.896423,578.763672 576.485840,578.913452 
	C572.343872,580.423462 568.331665,580.521057 565.991577,576.217651 
	C563.402344,571.456055 564.670776,566.150513 565.059814,561.058960 
	C565.147583,559.910767 566.464233,559.797058 567.494873,559.943726 
	C568.695251,560.114563 569.122742,561.034851 569.168091,562.087097 
	C569.268311,564.414124 569.294250,566.744812 569.323669,569.074402 
	C569.356812,571.695862 569.581848,574.424622 572.890808,574.661377 
	C576.256104,574.902100 576.869080,572.047119 577.187012,569.567078 
	C577.583313,566.475525 577.570435,563.331543 577.731506,560.261597 
	C580.690369,559.124634 582.147888,559.975830 582.188782,562.942444 
	C582.223206,565.439270 582.199768,567.936829 582.203613,570.908997 
z"/>
<path fill="#000000" opacity="1.000000" stroke="none" 
	d="
M858.741821,559.922241 
	C861.784363,555.464844 863.866882,551.900574 868.089233,559.147034 
	C869.692566,561.898682 871.536499,562.114014 867.741333,564.009460 
	C865.169006,565.294189 865.744507,572.822754 868.382080,574.886658 
	C869.521606,575.778320 870.584106,576.463806 869.973083,578.029907 
	C869.347473,579.633545 867.836731,579.335876 866.559021,579.313293 
	C864.776611,579.281799 863.167786,578.503479 862.478577,576.905945 
	C860.170044,571.555237 861.942932,565.189331 858.741821,559.922241 
z"/>
<path fill="#000000" opacity="1.000000" stroke="none" 
	d="
M675.022217,561.579651 
	C676.175659,559.350281 679.165955,558.864746 678.961548,555.969421 
	C678.944397,555.726501 679.261536,555.333923 679.516846,555.219177 
	C680.789368,554.647522 681.989624,554.425354 683.017822,555.797119 
	C687.642639,561.967285 687.670593,561.998108 685.569031,563.441223 
	C682.341064,565.657837 682.305176,572.726318 685.664734,574.726685 
	C687.067810,575.562073 688.473999,576.163391 687.760925,578.006836 
	C687.060303,579.817993 685.244446,579.458069 683.853149,579.267212 
	C679.696533,578.696716 678.486328,575.773987 678.677490,572.059265 
	C678.879639,568.130188 679.162720,564.243530 675.022217,561.579651 
z"/>
<path fill="#000000" opacity="1.000000" stroke="none" 
	d="
M717.177795,557.130310 
	C717.178589,563.429077 717.213867,569.244995 717.163635,575.060181 
	C717.148132,576.854492 717.316833,579.006958 714.687500,579.161438 
	C711.673645,579.338562 711.791260,577.015991 711.773376,575.024292 
	C711.718201,568.876648 711.617615,562.725037 711.790222,556.582214 
	C711.850891,554.423279 710.438477,550.860962 714.499023,550.904663 
	C718.541870,550.948181 716.730225,554.495667 717.177795,557.130310 
z"/>
<path fill="#000000" opacity="1.000000" stroke="none" 
	d="
M597.845032,561.749023 
	C591.599243,564.825012 590.532166,569.886963 591.242554,575.880981 
	C591.445801,577.596191 591.088318,579.339355 588.696594,579.245911 
	C586.274231,579.151367 586.385193,577.366089 586.388855,575.656616 
	C586.399719,570.548340 586.392700,565.440063 586.392700,560.181702 
	C589.817749,559.632874 592.957397,560.176270 595.974365,559.204041 
	C597.235718,558.797546 598.051575,559.942444 597.845032,561.749023 
z"/>
<path fill="#000000" opacity="1.000000" stroke="none" 
	d="
M429.674713,555.185913 
	C429.827850,552.941345 429.439270,550.691101 432.298828,550.938782 
	C434.763916,551.152344 434.303894,553.247559 434.317963,554.798157 
	C434.379974,561.623169 434.378601,568.449341 434.311737,575.274292 
	C434.296478,576.832031 434.679871,578.974731 432.232086,579.079773 
	C429.447998,579.199219 429.738373,576.897827 429.719940,575.140991 
	C429.651703,568.648987 429.680054,562.156067 429.674713,555.185913 
z"/>
<path fill="#000000" opacity="1.000000" stroke="none" 
	d="
M667.987122,569.046631 
	C668.092773,566.255432 668.088684,563.927246 668.341919,561.627441 
	C668.521484,559.997253 669.794067,559.568604 671.291687,559.695312 
	C672.750732,559.818909 673.270569,560.741760 673.270935,562.056274 
	C673.272339,566.869507 673.275513,571.682983 673.228455,576.495850 
	C673.214355,577.936951 672.744568,579.100525 670.991028,579.199036 
	C669.045715,579.308350 668.283325,578.166260 668.182373,576.487183 
	C668.042969,574.169861 668.045593,571.843933 667.987122,569.046631 
z"/>
<path fill="#000000" opacity="1.000000" stroke="none" 
	d="
M420.705078,563.472900 
	C420.708282,561.230591 420.971252,559.621643 423.312897,559.646240 
	C425.314423,559.667236 425.815582,561.084290 425.843048,562.677795 
	C425.920441,567.164001 425.946228,571.652527 425.885223,576.138733 
	C425.864105,577.694031 425.414246,579.172058 423.404419,579.225952 
	C421.066040,579.288757 420.763458,577.676941 420.750336,575.887207 
	C420.721039,571.897278 420.713654,567.907288 420.705078,563.472900 
z"/>
<path fill="#000000" opacity="1.000000" stroke="none" 
	d="
M637.012573,575.666626 
	C637.027954,571.208923 636.994568,567.213196 637.119202,563.222412 
	C637.171631,561.544373 637.430847,559.760071 639.812073,559.826721 
	C642.224976,559.894226 642.242554,561.700806 642.258728,563.382446 
	C642.298767,567.542603 642.298035,571.704041 642.240845,575.863892 
	C642.219971,577.386169 642.043274,578.960510 640.017456,579.175720 
	C637.769409,579.414490 637.144409,578.010071 637.012573,575.666626 
z"/>
<path fill="#000000" opacity="1.000000" stroke="none" 
	d="
M461.554688,574.261597 
	C461.574249,570.035645 461.591553,566.233093 461.595764,562.430603 
	C461.597290,561.045837 461.611328,559.709045 463.531799,559.650513 
	C465.400513,559.593567 466.259888,560.515747 466.264130,562.338623 
	C466.273743,566.471558 466.370544,570.606567 466.266022,574.736511 
	C466.216614,576.689697 467.052307,579.588928 463.530609,579.329468 
	C460.323944,579.093140 461.720245,576.456909 461.554688,574.261597 
z"/>
<path fill="#000000" opacity="1.000000" stroke="none" 
	d="
M879.382935,574.440063 
	C879.163208,576.658508 880.239624,579.345459 876.971741,579.212952 
	C873.855347,579.086548 874.763977,576.457214 874.697266,574.658386 
	C874.556274,570.855347 874.559448,567.045349 874.576721,563.238586 
	C874.584167,561.597778 874.465881,559.736694 876.913452,559.656738 
	C879.407654,559.575256 879.332703,561.395996 879.346436,563.076477 
	C879.376282,566.718262 879.364563,570.360413 879.382935,574.440063 
z"/>
<path fill="#000000" opacity="1.000000" stroke="none" 
	d="
M880.025146,554.460205 
	C879.111328,556.290649 878.282776,557.890930 876.185425,556.805176 
	C874.830017,556.103638 873.689514,555.049561 873.991089,553.316833 
	C874.235291,551.913635 875.105164,550.898865 876.636475,550.831360 
	C878.856934,550.733398 879.921997,551.971375 880.025146,554.460205 
z"/>
<path fill="#000000" opacity="1.000000" stroke="none" 
	d="
M642.321411,552.340881 
	C642.888550,555.388977 641.829102,557.009094 638.986572,556.565918 
	C636.960876,556.250061 636.241211,554.456909 636.982178,552.741760 
	C638.153137,550.031128 640.125854,550.221313 642.321411,552.340881 
z"/>
<path fill="#000000" opacity="1.000000" stroke="none" 
	d="
M424.670898,551.160156 
	C426.988586,553.614990 426.795593,555.730591 424.019653,556.872620 
	C422.195099,557.623108 420.760925,556.188904 420.469421,554.406921 
	C419.995819,551.511658 421.646393,550.555786 424.670898,551.160156 
z"/>
<path fill="#000000" opacity="1.000000" stroke="none" 
	d="
M460.801758,553.778442 
	C461.187042,551.098877 462.628113,550.442627 464.696198,550.988770 
	C465.874481,551.299927 466.730133,552.174622 466.819092,553.396240 
	C466.921295,554.798767 466.251221,555.976196 464.857300,556.432129 
	C462.772125,557.114319 461.416473,556.267639 460.801758,553.778442 
z"/>
<path fill="#000000" opacity="1.000000" stroke="none" 
	d="
M672.807617,551.763062 
	C673.866150,553.920410 673.916443,555.579956 671.707947,556.515747 
	C670.497070,557.028870 669.456238,556.617065 668.626648,555.689392 
	C667.640869,554.586975 667.482117,553.278137 668.286682,552.076843 
	C669.421631,550.382324 670.961243,550.478088 672.807617,551.763062 
z"/>
</svg>